/* XPM */
static char *result[] = {
/* columns rows colors chars-per-pixel */
"64 64 250 2 ",
"   c #EE000D",
".  c #F60202",
"X  c #F80101",
"o  c #F60B02",
"O  c #F80C01",
"+  c #F6040B",
"@  c #F7070C",
"#  c #F71302",
"$  c #F81501",
"%  c #F71C02",
"&  c #F81C02",
"*  c #F3170D",
"=  c #EC0013",
"-  c #EA051B",
";  c #F40512",
":  c #F50914",
">  c #F10B1C",
",  c #F40815",
"<  c #F21416",
"1  c #EE191B",
"2  c #F82401",
"3  c #F82B01",
"4  c #F62603",
"5  c #F73402",
"6  c #F83301",
"7  c #F83B01",
"8  c #F63B05",
"9  c #F32E14",
"0  c #DE072C",
"q  c #DB0B36",
"w  c #DE163D",
"e  c #DE193F",
"r  c #EC0E23",
"t  c #E50927",
"y  c #EC1125",
"u  c #E6112D",
"i  c #EA142A",
"p  c #E31434",
"a  c #E01639",
"s  c #E1193B",
"d  c #EA1229",
"f  c #EB2531",
"g  c #DF223F",
"h  c #F74402",
"j  c #F84401",
"k  c #F84C01",
"l  c #F54B06",
"z  c #F75501",
"x  c #F85401",
"c  c #F85C01",
"v  c #F65A06",
"b  c #F44F12",
"n  c #F86401",
"m  c #F86B02",
"M  c #F66804",
"N  c #F97402",
"B  c #F77903",
"V  c #F46F11",
"C  c #EC423D",
"Z  c #BE1C66",
"A  c #BD2E7A",
"S  c #B82677",
"D  c #BC317E",
"F  c #BE3D7F",
"G  c #BE246E",
"H  c #D30D41",
"J  c #CD124C",
"K  c #DC1A44",
"L  c #D61D4D",
"P  c #D91C4A",
"I  c #D61547",
"U  c #C91958",
"Y  c #D41E52",
"T  c #CD0F4A",
"R  c #CE235C",
"E  c #CB2A5B",
"W  c #D32155",
"Q  c #D12259",
"!  c #DA2B51",
"~  c #DB2C50",
"^  c #E83A4B",
"/  c #C21C64",
"(  c #CB2663",
")  c #C7276A",
"_  c #C6296D",
"`  c #CA2967",
"'  c #C32B74",
"]  c #C12C77",
"[  c #C1337A",
"{  c #CE3768",
"}  c #EE4848",
"|  c #E84A58",
" . c #F0534E",
".. c #F16746",
"X. c #F27546",
"o. c #D2416D",
"O. c #E65969",
"+. c #E9656D",
"@. c #EC7479",
"#. c #ED7270",
"$. c #DE526E",
"%. c #F78703",
"&. c #F89302",
"*. c #F79A02",
"=. c #F68D13",
"-. c #F8A802",
";. c #F7BB02",
":. c #F8BB02",
">. c #F7B202",
",. c #F6B012",
"<. c #F3A22F",
"1. c #F8C302",
"2. c #F7CB01",
"3. c #F8CC01",
"4. c #F7C500",
"5. c #F7D201",
"6. c #F8D402",
"7. c #F6CB17",
"8. c #F6D82A",
"9. c #F28646",
"0. c #F39847",
"q. c #F3AC4B",
"w. c #F08F6F",
"e. c #F1A66E",
"r. c #F4D34E",
"t. c #F3DC6D",
"y. c #742DA8",
"u. c #7D3BAF",
"i. c #7833AC",
"p. c #7F3BB1",
"a. c #7C34B2",
"s. c #6F2AA4",
"d. c #AD2C8B",
"f. c #B42C86",
"g. c #BA3383",
"h. c #B6358B",
"j. c #B8378A",
"k. c #A82E94",
"l. c #AD3C9C",
"z. c #AA3698",
"x. c #B23A93",
"c. c #B13895",
"v. c #AD308D",
"b. c #9D38AB",
"n. c #813DB4",
"m. c #853CBB",
"M. c #833ABA",
"N. c #973DB5",
"B. c #A93DA2",
"V. c #A33AA5",
"C. c #BB5097",
"Z. c #8342B5",
"A. c #8642B9",
"S. c #8A45BC",
"D. c #8C49BD",
"F. c #884AB3",
"G. c #9E45B5",
"H. c #9C4ABB",
"J. c #9944BA",
"K. c #8D51B9",
"L. c #A542AC",
"P. c #A943A5",
"I. c #B55AAA",
"U. c #A245B2",
"Y. c #A34BB3",
"T. c #AB55B1",
"R. c #9667B9",
"E. c #BD64A8",
"W. c #B468B8",
"Q. c #AE6ABD",
"!. c #C9578D",
"~. c #D56C91",
"^. c #E6788A",
"/. c #C972A8",
"(. c #893EC1",
"). c #8C43C3",
"_. c #8E49C3",
"`. c #8F45C8",
"'. c #934BC6",
"]. c #994CC2",
"[. c #944DC9",
"{. c #9146C6",
"}. c #9757C4",
"|. c #9D65C6",
" X c #A36DCB",
".X c #A568C7",
"XX c #A773C9",
"oX c #AD72CA",
"OX c #E58897",
"+X c #EF9492",
"@X c #F2AF8F",
"#X c #C987BB",
"$X c #D690B3",
"%X c #E599A9",
"&X c #ECAEB4",
"*X c #DE92AB",
"=X c #F2C68C",
"-X c #F4D293",
";X c #F4E492",
":X c #F3D8AD",
">X c #F8EDB5",
",X c #BA95D6",
"<X c #B28BCC",
"1X c #BFA4D2",
"2X c #CA8EC3",
"3X c #CA96CA",
"4X c #C69BD4",
"5X c #D7A4C7",
"6X c #C7AAD9",
"7X c #D8B8D7",
"8X c #D1B3D8",
"9X c #ECB9C5",
"0X c #E4AFCA",
"qX c #D1B7E3",
"wX c #DBC3DB",
"eX c #E7C7D6",
"rX c #EBD5DC",
"tX c #F2DBDC",
"yX c #F1C7CB",
"uX c #ECE4DA",
"iX c #F4E3DC",
"pX c #F5E7D7",
"aX c #F1E7C7",
"sX c #DED5E4",
"dX c #D8C7E4",
"fX c #E6D9E7",
"gX c #F0DEEA",
"hX c #EAE3EC",
"jX c #EDECEC",
"kX c #ECE4E5",
"lX c #F2ECED",
"zX c #F5E8E6",
"xX c #F2F2EE",
"cX c #FAF3E6",
"vX c #EFEDF1",
"bX c #EDE6F2",
"nX c #F1EDF2",
"mX c #F1E7F1",
"MX c #EDF3F5",
"NX c #EEFBFD",
"BX c #EEF4FA",
"VX c #F4F4F4",
"CX c #FAF5F5",
"ZX c #F5FAF5",
"AX c #F9FBF6",
"SX c #F4F6FB",
"DX c #F5FCFC",
"FX c #FCFDFD",
"GX c #F9F7F9",
"HX c #EEF0EF",
/* pixels */
"FXGXjXFXGXjXFXGXjXFXGXjXFXFXjXGXFXjXGXFXjXGXGXjXGXFXjXVXFXjXSXFXjXVXFXjXVXFXjXVXFXjXVXFXHXHXFXxXHXFXVXjXFXVXjXFXVXlXFXVXjXFXVXjX",
"VXGXGXVXVXGXVXGXGXVXGXGXVXVXVXZXGXGXGXAXFXZXDXFXGXAXAXFXAXFXGXZXFXFXDXFXGXGXAXFXDXFXFXGXAXFXGXAXGXVXSXVXVXGXDXVXGXGXVXGXGXZXVXDX",
"jXGXFXHXVXFXMXZXFXHXVXFXAXFXFXjXkXnXfXfXnXfXfXVXfXfXnXhXsXvXbXsXmXhXfXvXhXfXbXhXsXbXbXsXbXhXsXjXVXxXFXFXxXVXFXxXGXFXjXGXFXlXVXFX",
"FXVXjXFXCXjXFXGXjXFXFXhXeX#XE.T.Y.Y.Y.H.H.}.}.[.[.}.'.'.}._._._.D.D.D.F.S.S.F.S.F.Z.Z.A.Z.Z.Z.Z.F.R.<XqXGXAXxXAXVXHXFXVXjXFXGXjX",
"VXVXGXVXGXGXVXVXFXjX$XC.d.d.z.z.B.B.U.U.G.H.].'.[.[.[.`.`.`._.).).S.S.S.A.S.A.A.m.Z.m.p.m.p.p.p.u.i.y.y.F.,XjXAXVXDXVXGXGXVXVXGX",
"HXGXGXVXVXFXMXDX0XD S g.h.x.x.l.l.B.B.U.U.G.H.].[.[.[.[.'._.'._._.)._.S.S.S.S.A.A.A.Z.Z.Z.Z.p.Z.p.u.Z.u.i.s.F.1XFXFXjXGXFXMXGXFX",
"FXVXjXFXVXMXFX~.Z ' [ g.g.j.h.x.l.l.B.V.U.U.H.H.}.[.[.[.[.'.'._.{._._._.D.D.S.S.A.A.).A.Z.Z.Z.p.Z.p.u.u.u.u.i.s.Q.HXFXVXjXFXVXjX",
"VXVXFXVXAXVX!.J ) _ ' A A g.j.x.l.x.B.V.V.V.b.N.N.{.{.{.`.`.).).).).).(.m.A.m.m.(.p.p.M.p.p.p.Z.Z.p.p.u.u.u.u.u.s.R.jXFXGXxXVXFX",
"VXVXFXVXGX!.J ` ( ) ' ' ] g.g.j.d.v.l.I.I.W.W.Q.Q.oXoX XoX X X X X X X|. X.X|.|..X|.|.|.|.K.p.a.a.Z.Z.u.u.u.u.u.u.s.R.MXZXxXZXFX",
"FXVXjXFX^.H Q Y ( ( ) _ ' [ S g./.5XgXVXjXGXFXjXGXFXjXVXFXHXGXFXjXGXFXxXVXFXHXZXFXxXZXFXHXjXfX6XR.u.a.Z.p.u.u.u.u.u.s.<XZXFXVXjX",
"nXVXFX9XK P Y Y Y ( ( _ _ S /.rXAXFXZXVXGXVXVXFXVXnXFXVXVXFXVXHXFXVXMXGXZXMXGXDXxXGXGXjXGXGXVXFXFXdXXXi.p.n.u.u.u.u.u.y.dXZXVXFX",
"VXVXSX| p P P L Y Q R U [ 9XFXGXnXFXDXFXFXVXVXFXDXVXFXZXVXFXFXSXFXGXZXFXGXZXFXDXVXFXAXZXFXFXAXGXVXAXAX6Xp.p.p.u.u.u.u.y.R.ZXVXGX",
"FXFX&X0 a e K P L W Y { zXFXkXFXGXfX0X/./.I./.I.E.W.W.Q.oXQ.oXXXXXXXoX XXXoX|. XXX X X XXX<XdXbXAXFXjXAXfXZ.a.Z.p.u.u.Z.s.dXAXjX",
"lXDX+.t a a w K P P { lXGXjXFXlX$XF S S S d.d.z.z.z.V.V.b.G.J.N.{.`.`.{.`.`.).).(.A.m.m.m.p.M.K.6XHXFXGXZXfXZ.u.Z.u.u.u.y.Q.FXDX",
"GXxXg t u p a e K P eXFXnXFXrXo./ _ ] g.g.j.j.x.x.B.B.B.L.L.G.H.].'.[.[.[.[.[.[._._._._._.S.D.A.a.|.jXFXMXFX8Xu.Z.u.u.u.i.F.vXFX",
"FXyX- r u u p a q OXFXkXFXrX( / ` _ ' ' A g.j.h.x.c.l.B.P.L.L.G.G.].].[.[.`.[.`.[.`._.D._._.S.D.D.M.K.hXFXMXZXXXa.Z.u.u.u.i.sXxX",
"NX&X= r r d u u ~ gXxXFXlX{ Y R ( ) ) ' ' A D j.h.h.c.z.B.P.L.L.G.H.].].[.[.[.[.'.`._.'.).).m.m.S.D.M..XHXGXFXsXp.n.p.p.Z.y.qXFX",
"FX+X. > > r u t ^.FXxXDX^.q W W R R ) ) ' A D D j.h.x.c.l.l.P.L.U.U.G.].'.[.[.[.'.'.'.`.|.7XdX Xm.D.D.a.6XFXVXAXXXa.Z.p.Z.y.6XFX",
"FX+X. : > > r t &XFXFXrXW K L W W R R ) ) ' A A D j.h.h.c.l.l.B.L.U.G.H.H.'.[.[.[.'.`.}.jXZXFXnX}.S.S.Z.}.VXHXFX8Xi.Z.Z.n.i.1XZX",
"NX+X. : , > , p VXVXDX%X0 P P L Y R R ( ) ) ' ' D D j.j.x.c.l.P.P.L.U.U.G.H.].[.[.[.(.<XFXVXhXFX<Xm._.D.M.fXFXxXsXA.Z.Z.Z.i.6XFX",
"FX+XX @ @ : + ^ ZXVXFX^.0 e K K P W W R R ( ) ' ' A g.j.f.d.v.v.k.z.b.b.U.H.H.].[.[.'.}.bXFXFXnX}.(.D._.M.6XAXGXvXK.M.Z.Z.a.1XFX",
"FX+XX @ + ; + } SXGXDXO.t a w w P L Y W R ( ( ) ' A S S j./.#X3X5X3X2XW.T.b.N.].'.[.[.`.|.qXqX X(._.).D.m.<XAXGXVX}.p.Z.Z.a.1XGX",
"DX+XX + . @ . | FXlXSXO.- p w w e K L Y W R ( ( ) ) !.5XrXFXFXZXFXFXZXFXmX6X.XN.H.[.[.[.{.).(.(._.`._._.p.,XFXjXSX}.m.Z.A.i.6XFX",
"FX+XX # . . X } NXCXDX| - p u w w K K L Y Q Q R ` $XjXFXFXxXVXFXGXDXFXnXCXFXCX8XY.J.}.[.[.[.[.[._._._._.(.,XFXDXnXR.Z.A.A.a.1XFX",
"FX@X. $ O + X } DXCXFX| = d u p p w K K L W L { rXFXnXVXFXZXlXgXwXgXVXNXFXCXlXFXjXQ.N.[.[.[.[.[.'.'.'._.A.,XAXGXVX}.m.S.F.a.6XGX",
"NX+X# % $ O X } FXlXDX| = r r u p p w w K P { zXFXhXFXGX0X/.!.S D g.C./.7XjXFXVXxXVX.XN.].[.[.[.'.'.'.'.(.,XFXjXVX|.m.S.S.a.6XFX",
"FX+X% 4 $ $ X C DXGXFX| + r r y d p a w w P rXDXVXFXtX!./ / ' ] D g.v.d.d.I.fXFXGXGXhXH.J.[.[.[.`.[._.[.(.,XAXFXVX}.S.S.D.a.6XAX",
"FX@X2 3 2 2 O } DXVXFX} + , > r r u u a 0 %XFXlXFXrXE U ` _ _ ' A D g.j.j.v.c.wXFXlXFX7XN.Y.].[.[.[.[._.(.,XAXGXVX}.S.D.D.n.6XAX",
"NX@X3 5 3 4 O  .FXjXNX} X : , > r r u t ~ MXxXFXzXE L Q ( ( ) _ ' D D g.j.h.c.c.fXFXVXVXoXJ.].].[.[.[.[.(.,XFXjXDX|.A.D.D.M.6XFX",
"FX@X5 8 5 3 $  .NXCXFX} X @ ; , > r d - OXFXGXNX~.q W Y Q R ) ) _ G A D g.j.x.v.E.VXVXFX7Xb.U.H.{.[.[.[.(.,XFXFXVX}.).)._.M.6XCX",
"FX@X7 j 7 6 2 ..DXVXFX} X @ + @ , > r d tXDXFXyXq K P Y Y Q ( ( ` _ ' D D g.j.h.h.wXAXGXhXT.N.U.H.].[.[.`.,XAXSXVX}.).D._.M.6XFX",
"BX@Xh l j 8 2 ..FXjXDX .X o + + ; , = ^ FXVXNXOXt K K P Y Y Q R ( ) _ _ A D g.j.f.#XFXhXFXW.V.U.G.H.].}.`.4XFXjXSX.X)._._.M.6XFX",
"FX@Xk x k h 6 ..MXGXFX} X o . + @ : @ | NXCXFX$.t a w K P Y Y Y R ( ) ) ' A D g.f.E.VXGXAX#XV.L.U.G.H.].`.,XGXFXVX}.`._._.m.6XGX",
"FX@Xx c x k 7 ..DXVXDX .O $ . . + @ X O.AXVXSX| t a a w K L Y Y R R ( ) _ ' ] D f.C.VXVXFX2Xk.P.V.U.G.H.N.,XFXVXSX.X`._.{.m.6XFX",
"NX@Xc n z v h X.FXlXDX..O % # . X @ X  .FXxXZX| t p p w w K P L W Q R ( ) _ ' [ A !.CXjXFX3Xk.P.B.U.U.Y.N.4XFXjXVX X`.`._.M.qXFX",
"FX-Xn M n z k X.MXFXFX..% & # O O X X ^ MXCXFX+.= d p p p w K P L Y Q R ( ( ) ' S !.AXFXZX/.k.l.B.B.L.Y.b.,XGXFXVX|.`.[.[.(.6XZX",
"DX@XN N m n k 9.DXxXDX..2 4 2 % $ o . 1 VXGXDX%X= y d u p a w K K L Y Q R ( ` _ Z 5XFXVXSXC.h.x.l.B.B.U.b.3XFXVXSX.X{.[.[.(.6XFX",
"DX=XB B m m z 9.FXlXDXX.4 3 2 % $ O o . &XDXVXCXf - r d u p a w K P L W Q R ( ) ' nXFXxXfXh.h.x.c.l.B.P.b.4XFXjXCX X{.[.[.(.qXFX",
"FX-X%.B N N n 9.MXGXFXX.6 7 3 2 % % # X  .DXGXDX%X  r r d p p a w K K L Y Y E U $XAXlXFX$XS j.h.x.c.l.B.k.<XCXFXnX|.{.[.[.(.6XVX",
"DX=X%.%.%.B m 0.DXVXDXX.7 7 7 3 3 & $ O o yXAXCXDX+.. r r r u p w w K P P W T ~.ZXGXFXgX[ S g.g.h.h.x.l.k.3XFXVXCX.X].[.[.`.6XFX",
"SX-X&.&.%.%.m 0.FXjXDXX.h l 7 7 3 2 % % X C DXGXVXZX@.  = y u p p w w K a q ~.ZXxXGXFX~.) A A g.g.j.x.x.k.2XFXVXCXT.J.].].(.qXFX",
"FX-X&.*.&.%.B 0.MXFXFX9.k k h 7 5 6 3 2 & X @.NXCXFXNX&X} - = - - t 0 q { 9XNXVXFXDX*X/ _ ' ' D g.g.j.x.v.#XGXFXSXT.N.Y.].(.6XCX",
"DX-X-.-.*.&.%.0.FXlXDX9.z z k h 7 5 6 4 & % o w.AXVXGXFXMXyXOX+.+.+.OXyXGXDXCXCXNX%XU ( ( ) ' ' ] g.j.j.v.#XFXnXCXI.b.Y.].N.8XFX",
"SX-X-.-.*.&.&.q.FXVXDX0.z n x x h h 5 3 3 % % + O.lXFXnXlXFXFXDXDXDXDXFXVXxXFXxX~.I W R R ) ) _ ' A g.j.d.$XFXMXSXT.V.U.N.N.8XFX",
"FX;X>.-.-.-.&.<.jXGXFXe.n M c z k h 7 5 3 4 2 & X 9 OXSXFXZXAXFXbXSXFXSXDXFX&X{ e L W W R R ) ) ' ' A g.S 5XSXFXmXP.V.P.L.b.6XVX",
"SX;X:.;.>.-.*.*.cXMXDX:XM N n c z k k j 7 3 3 2 % O + 9 #.&XtXkXVXlXtX9XOX^ u q K P P W Y R R ) ) ' ] ] A fXFXVXeXc.B.B.L.V.8XFX",
"SX;X:.1.;.-.-.-.>XDXVXxX=.m m n c z k j 7 7 3 4 2 % $ X X . @ i f i y , = t p a s e K P Y W R R ( _ ' _ !.DXVXDX5Xd.c.B.B.b.8XFX",
"FX>X2.1.:.>.>.-.q.FXVXBX=XN N m n n z x h 7 7 6 3 2 & $ O o . X X + : > r u u u a w K K P L W R ( ( _ Z eXGXjXGX/.d.x.l.l.k.7XVX",
"nXaX3.3.1.;.;.>.,.aXSXFXBX0.B B m n c z k k h 7 3 4 2 % $ O . . + @ : : > r r u u a a K K P Y Y Q ` U /.ZXVXFX7XS j.h.x.c.z.fXFX",
"SXcX7.3.2.1.;.;.>.q.DXVXSXzX<.N N m m c z k j h 7 6 2 2 % $ O . . + @ : , > - d u u p a e P P Y W T ~.CXGXSXDX!.A j.j.h.c.C.nXSX",
"FXFXr.6.3.2.1.1.;.>.-XBXGXFXkXq.N m m M n z v k h 7 5 3 4 & $ # O . + @ : > > y d u p a e K P H J OXxXxXFXDX$XZ ] g.g.j.f.#XFXhX",
"jXDX>X6.5.2.2.4.1.;.>.>XSXlXFXSX:X0.N n c z k h h 5 3 2 & $ O X X X . . . . +   = - - t t 0 L +.eXZXGXCXDX$XU _ ' ] D j.f.7XFXFX",
"DXVXSX8.6.6.2.2.1.1.:.,.:XDXVXVXDXSXpX-Xe.e.e.w.w.e.w.w.w.#.w.#.#.#.#.+.#.@.+.@.@.@.@.^.OX&XtXDXFXVXVXFX*XR ( ) _ ' A S !.DXVXVX",
"FXCXBX>X6.6.5.5.3.1.1.;.>.t.hXFXAXjXFXFXNXFXFXNXFXFXDXDXAXNXDXFXNXDXFXAXFXFXDXDXFXDXDXFXDXAXFXlXVXFXgX~.J Q E ( ) _ ' G eXFXVXvX",
"jXZXFXBXt.6.6.6.3.2.4.:.;.>.,.-XxXFXSXBXFXVXMXFXSXvXFXDXHXFXGXMXFXGXHXFXGXMXFXGXHXFXFXvXFXFXNXDXlXOX! H Y W Q E ( ) Z $XFXjXSXFX",
"GXGXVXGXDXr.6.6.3.2.2.4.1.;.>.-.,.e.-X>XpXpXpXuXiXpXiXiXpXiXiXiXiXiXiXtXtXiXtXtXzXtXtXkXtX9X%XO.g t w K P L Y Q ( U ~.GXVXGXVXVX",
"FXVXxXGXAXxXr.6.6.5.3.2.4.1.:.>.-.-.&.&.&.=.%.V V V M M v b b l 8 9 9 4 4 < * * : < < > > - = - u a a w K P W Q J !.GXDXjXFXVXVX",
"jXGXFXjXVXFXcXt.6.6.5.5.2.4.1.:.>.>.-.*.&.%.%.B B M n c z k h j 7 5 3 2 % # O . X + + + : > r y u u p w s K K H ^.AXHXCXFXjXVXFX",
"FXVXHXFXGXxXFXDX;X8.6.6.3.3.1.1.;.>.>.-.-.&.&.%.%.B N m M z x k j 7 5 3 2 % # # O X + @ ; : : r r d p p p 0 ! 9XFXMXGXVXxXFXCXVX",
"FXGXMXAXGXHXGXVXBXVX;X8.5.3.3.1.1.:.>.>.-.&.&.&.%.B N N n n x k k j 7 6 3 2 % # O X X X + + @ , = = - u ~ OXjXFXVXVXFXVXVXGXVXMX",
"jXVXFXjXVXFXjXVXFXjXSXFX>Xt.r.8.7.7.;.,.,.,.,.=.=.=.=.%.V V V V v b b b l 9 9 9 9 < * < > < 1 i f | ^.yXjXFXFXkXGXFXjXGXFXjXGXFX",
"FXVXVXFXGXxXFXDXHXFXGXjXDXFXvXCXcXuXcXcXuXcXcXuXcXcXuXzXcXuXzXcXkXkXcXtXkXzXiXzXcXtXkXzXkXtXcXuXVXFXDXDXFXxXVXFXVXMXAXZXVXGXGXjX",
"GXGXVXVXVXVXGXGXVXGXGXVXVXVXVXVXFXSXSXFXVXDXFXVXDXFXVXDXFXSXDXFXDXGXFXDXDXAXZXFXDXDXAXFXGXFXFXGXVXGXVXVXGXVXVXFXVXVXGXGXVXGXGXVX",
"jXVXFXjXVXFXHXVXFXjXVXFXlXVXFXVXvXFXVXlXFXxXjXFXVXlXFXVXjXFXVXjXFXVXjXFXVXjXFXGXjXFXGXkXFXGXjXGXFXjXGXFXjXGXFXjXGXFXjXGXFXjXVXFX"
};
